# xmcd CD database file
#
# Track frame offsets:
#	150
#	25098
#	42007
#	66937
#
# Disc length: 1118 seconds
#
# Revision: 0
# Processed by: cddbd v1.5.1PL0 Copyright (c) Steve Scherf et al.
# Submitted via: CDex 1.51
#
DISCID=2a045c04
DTITLE=安藤裕子 - さみしがり屋の言葉達
DYEAR=2005
DGENRE=JPop
TTITLE0=さみしがり屋の言葉達
TTITLE1=MONDAY BABY.
TTITLE2=さみしがり屋の言葉達（inst）
TTITLE3=MONDAY BABY.（inst）
EXTD=YEAR: 2005
EXTT0=
EXTT1=
EXTT2=
EXTT3=
PLAYORDER=
